<svg id="Layer_1" data-name="Layer 1" xmlns="http://www.w3.org/2000/svg" viewBox="0 0 32 32">
  <title>home</title>
  <path d="M30.7,16.78,17,2.83a1,1,0,0,0-1.47,0L1.32,16.76a1.06,1.06,0,0,0-.24,1.16,1,1,0,0,0,1,.65H4.48v9.85a1.05,1.05,0,0,0,1,1.06h7.16a1.05,1.05,0,0,0,1-1.06V21.21h4.36v7.21a1.05,1.05,0,0,0,1,1.06h6.81a1.05,1.05,0,0,0,1-1.06V18.57h3a1,1,0,0,0,1-.65A1.07,1.07,0,0,0,30.7,16.78Zm-4.75-.32a1.05,1.05,0,0,0-1,1.06v9.85H20.19V20.16a1.05,1.05,0,0,0-1-1.06H12.68a1.05,1.05,0,0,0-1,1.06v7.21H6.57V17.52a1.05,1.05,0,0,0-1-1.06H4.62L16.28,5.07l11.17,11.4Z"/>
</svg>