<svg id="Layer_1" data-name="Layer 1" xmlns="http://www.w3.org/2000/svg" viewBox="0 0 32 32">
  <title>menu</title>
  <g>
    <path d="M30.1,3.31H1.9a.84.84,0,0,0-.9.92V6.85a.84.84,0,0,0,.9.92H30.1a.84.84,0,0,0,.9-.92V4.23A.84.84,0,0,0,30.1,3.31Z"/>
    <path d="M30.1,24.23H1.9a.84.84,0,0,0-.9.92v2.62a.85.85,0,0,0,.9.92H30.1a.85.85,0,0,0,.9-.92V25.15A.84.84,0,0,0,30.1,24.23Z"/>
    <path d="M30.1,13.77H1.9a.84.84,0,0,0-.9.92v2.62a.84.84,0,0,0,.9.92H30.1a.84.84,0,0,0,.9-.92V14.69A.84.84,0,0,0,30.1,13.77Z"/>
  </g>
</svg>