<svg id="Layer_1" data-name="Layer 1" xmlns="http://www.w3.org/2000/svg" viewBox="0 0 32 32">
  <title>search</title>
  <path d="M12.64,1h-.05A11.59,11.59,0,0,0,1,12.66,11.84,11.84,0,0,0,12.73,24.41h0a11.61,11.61,0,0,0,6.86-2.26l.18-.13.16.15,8.35,8.35a1.55,1.55,0,1,0,2.19-2.18h0L22,19.82l.13-.18a11.65,11.65,0,0,0,2.24-6.89A11.84,11.84,0,0,0,12.64,1Zm7,18.67a9.79,9.79,0,0,1-6.89,2.86h0a9.93,9.93,0,0,1-9.84-9.85,9.73,9.73,0,0,1,9.74-9.79h0a9.93,9.93,0,0,1,9.84,9.86A9.79,9.79,0,0,1,19.65,19.67Z"/>
</svg>